<svg width="80" height="62" viewBox="0 0 80 62" fill="none" xmlns="http://www.w3.org/2000/svg">
<path d="M28.6482 51.3172C28.0022 51.3172 27.4785 51.8407 27.4785 52.4869V58.6468C27.4785 59.293 28.0022 59.8165 28.6482 59.8165C29.2942 59.8165 29.8179 59.293 29.8179 58.6468V52.4869C29.8179 51.8407 29.2942 51.3172 28.6482 51.3172Z" fill="#1E959B"/>
<path d="M51.2898 51.3172C50.6438 51.3172 50.1201 51.8407 50.1201 52.4869V58.6468C50.1201 59.293 50.6438 59.8165 51.2898 59.8165C51.9358 59.8165 52.4595 59.293 52.4595 58.6468V52.4869C52.4595 51.8407 51.9358 51.3172 51.2898 51.3172Z" fill="#1E959B"/>
<path d="M74.0171 47.2337L70.1005 45.6624V44.6621C70.8694 44.2348 71.5597 43.6788 72.1406 43.0225C74.618 43.3149 76.9883 42.326 78.5228 40.3365C80.1097 38.2791 80.4398 35.6277 79.4061 33.2439L77.6474 29.1887C77.5152 28.884 77.4242 28.5626 77.3768 28.2338C76.9979 25.5997 75.6814 23.1892 73.6701 21.4466C71.6587 19.7038 69.0854 18.7442 66.4242 18.7442C63.7629 18.7442 61.1897 19.7038 59.1783 21.4466C57.1671 23.1892 55.8505 25.5995 55.4715 28.2338C55.4241 28.5627 55.3332 28.8841 55.2009 29.1887L53.4424 33.2439C52.4087 35.6275 52.7389 38.279 54.3257 40.3365C55.6832 42.0965 57.6944 43.0773 59.8551 43.0771C60.1338 43.0771 60.4153 43.0606 60.6982 43.0274C61.2254 43.6251 61.8436 44.14 62.5321 44.5498V45.6622L58.6158 47.2337C58.3605 47.3361 58.1112 47.452 57.8683 47.5802C57.1105 46.1864 56.0286 44.9676 54.6824 44.0417L49.5812 40.5335C49.6107 39.8892 49.353 39.2403 48.8282 38.795L46.7554 37.0361C46.5589 36.8693 46.3381 36.7433 46.1048 36.6576V34.2896C48.2958 32.7004 49.8494 30.2859 50.3048 27.5052H50.4296C52.6598 27.5052 54.4742 25.6908 54.4742 23.4608C54.4742 22.5086 54.1426 21.6328 53.5901 20.9411L54.4261 14.9975C55.0288 10.7127 52.0374 6.70918 47.7575 6.07256L47.591 6.04792C46.2225 3.81431 44.1029 2.20282 41.5597 1.48168L41.2536 1.39481C37.8818 0.438796 34.2752 1.00944 31.3585 2.96077C30.8215 3.31993 30.6774 4.04638 31.0366 4.58318C31.3958 5.11998 32.122 5.26424 32.6592 4.90492C35.0049 3.33568 37.9048 2.87671 40.6154 3.64541L40.9216 3.73228C43.0496 4.33568 44.7965 5.74194 45.8404 7.69201C46.5586 9.03371 46.8757 10.5092 46.7841 11.9852L45.9912 11.3037C45.2665 10.6808 44.2009 10.6642 43.4576 11.2647L42.4175 12.1048H36.4804C32.6278 12.1048 29.4934 15.2392 29.4934 19.0918V19.4167C29.1832 19.4177 28.8816 19.4549 28.5915 19.5224C27.2692 15.7997 27.642 11.6054 29.6296 8.17454C29.9533 7.61544 29.7627 6.89991 29.2038 6.57599C28.6448 6.25238 27.9293 6.4428 27.6054 7.00175C25.2018 11.1511 24.8121 16.2526 26.5401 20.7173C25.8727 21.4388 25.464 22.4028 25.464 23.4608C25.464 25.6908 27.2784 27.5052 29.5085 27.5052H29.6333C30.0887 30.2859 31.6423 32.7004 33.8334 34.2896V36.6576C33.6 36.7431 33.3792 36.8693 33.1829 37.036L31.1099 38.795C30.5851 39.2403 30.3275 39.8894 30.3569 40.5335L25.2558 44.0417C24.2191 44.7546 23.3389 45.641 22.6427 46.6474C22.1915 46.3982 21.7213 46.1852 21.2344 46.0127L17.7709 44.7859V43.8641C19.5351 42.7741 20.8034 40.9572 21.1566 38.8343H21.68C23.7322 38.8343 25.4017 37.1648 25.4017 35.1127C25.4017 34.1913 25.0646 33.3479 24.5079 32.6973L24.7168 30.2252C25.007 26.6654 23.4537 23.2886 20.5615 21.193C17.6693 19.0971 13.9767 18.6724 10.6841 20.0567L8.35274 21.0369C4.74282 21.8338 2.33002 25.2929 2.84545 28.9673L3.36697 32.6853C2.80428 33.3375 2.46289 34.1857 2.46289 35.1127C2.46289 37.1648 4.1324 38.8343 6.18463 38.8343H6.70802C7.03834 40.8195 8.16918 42.5364 9.75713 43.6423V44.7859L6.29365 46.0125C5.80862 46.1844 5.33077 46.3996 4.87351 46.6526C4.30817 46.9651 4.10324 47.6767 4.41578 48.2421C4.62912 48.6281 5.02853 48.8459 5.44041 48.8459C5.63177 48.8459 5.82593 48.7988 6.00528 48.6996C6.35041 48.5088 6.71021 48.3466 7.07436 48.2176L10.0672 47.1575C10.6732 48.602 12.1018 49.6192 13.7638 49.6192C15.4258 49.6192 16.8544 48.602 17.4604 47.1575L20.4532 48.2177C20.8297 48.3509 21.1931 48.5167 21.5413 48.7113C21.0768 49.8891 20.8277 51.1583 20.8277 52.4607V59.3998C20.8277 60.0459 21.3514 60.5695 21.9974 60.5695C22.6433 60.5695 23.167 60.0459 23.167 59.3998V52.4607C23.167 49.8662 24.4434 47.4395 26.5811 45.9693L31.4525 42.6191L33.4492 45.2887C33.8784 45.8626 34.5514 46.1859 35.2455 46.1859C35.4617 46.1859 35.68 46.1546 35.8935 46.0896L38.7992 45.2053V59.8895C38.7992 60.5356 39.3229 61.0592 39.9688 61.0592C40.6148 61.0592 41.1385 60.5356 41.1385 59.8895V45.2053L44.0444 46.0897C44.2579 46.1546 44.476 46.1859 44.6921 46.1859C45.3861 46.1859 46.0592 45.8625 46.4884 45.2887L48.485 42.6191L53.3564 45.9693C55.4943 47.4395 56.7705 49.8662 56.7705 52.4607V59.3998C56.7705 60.0459 57.2942 60.5695 57.9402 60.5695C58.5861 60.5695 59.1098 60.0459 59.1098 59.3998V52.4607C59.1098 51.5395 58.9849 50.6348 58.7479 49.767C58.9849 49.6287 59.2315 49.5073 59.4865 49.405L62.8827 48.0423C63.4844 49.3374 64.7968 50.238 66.3163 50.238C67.8357 50.238 69.1481 49.3375 69.7498 48.0424L73.1462 49.405C75.2939 50.2665 76.6814 52.3185 76.6814 54.6324V56.6123C76.6814 57.2584 77.2051 57.7819 77.8511 57.7819C78.4971 57.7819 79.0208 57.2584 79.0208 56.6123V54.6324C79.0206 51.3573 77.0565 48.4532 74.0171 47.2337ZM27.8028 23.4606C27.8028 22.5255 28.5597 21.7644 29.4929 21.7562V25.1647C28.5598 25.1566 27.8028 24.3957 27.8028 23.4606ZM21.6797 36.4948H21.2573V33.73H21.6797C22.442 33.73 23.0621 34.3503 23.0621 35.1124C23.0621 35.8746 22.442 36.4948 21.6797 36.4948ZM4.80192 35.1126C4.80192 34.3503 5.42201 33.7302 6.18432 33.7302H6.60665V36.495H6.18432C5.42216 36.4948 4.80192 35.8747 4.80192 35.1126ZM8.02726 27.7853C7.25137 28.8567 6.78226 30.0905 6.64798 31.3907H6.18432C5.96973 31.3907 5.75981 31.41 5.55504 31.4449L5.16187 28.6419C4.81222 26.1498 6.47035 23.8051 8.93664 23.304C9.01212 23.2887 9.08605 23.266 9.15716 23.236L11.5907 22.2128C14.1237 21.1478 16.964 21.4748 19.1887 23.0868C21.4135 24.6991 22.6084 27.2964 22.3854 30.0312L22.2665 31.4371C22.0753 31.4067 21.8795 31.3905 21.6797 31.3905H21.2471C21.1463 30.3988 20.3065 29.6221 19.2886 29.6221H16.4002C14.3418 29.6221 12.3048 28.937 10.6648 27.6933L10.3339 27.4423C9.98638 27.1788 9.53941 27.0643 9.1085 27.1285C8.67713 27.1928 8.28303 27.4322 8.02726 27.7853ZM9.92197 29.1574C9.92166 29.1578 9.9215 29.1582 9.92135 29.1585C9.9215 29.1582 9.92182 29.1578 9.92197 29.1574ZM8.94615 32.1692C8.94615 31.3233 9.14999 30.5058 9.54035 29.7697C11.5324 31.1856 13.9542 31.9618 16.4004 31.9618H18.918V37.6283C18.918 40.3777 16.6813 42.6144 13.9321 42.6144C11.1829 42.6144 8.94615 40.3777 8.94615 37.6283V32.1692ZM13.7636 47.2798C12.8441 47.2798 12.0962 46.5317 12.0962 45.6123V44.7206C12.683 44.8726 13.2983 44.9537 13.9321 44.9537C14.4458 44.9537 14.947 44.9001 15.4313 44.7989V45.6123C15.4313 46.5317 14.6832 47.2798 13.7636 47.2798ZM50.4443 25.1647V21.7562C51.3775 21.7643 52.1344 22.5255 52.1344 23.4606C52.1344 24.3957 51.3775 25.1566 50.4443 25.1647ZM52.1091 14.6712L51.4241 19.5402C51.1104 19.4605 50.7821 19.4176 50.4441 19.4163V19.3217C50.4441 17.4359 49.8608 15.6219 48.8045 14.1062C49.2651 12.3323 49.2489 10.5061 48.7721 8.7703C51.0314 9.73457 52.4662 12.1327 52.1091 14.6712ZM31.8324 25.8067V19.0915C31.8324 16.5287 33.9174 14.4438 36.4801 14.4438H42.8306C43.0981 14.4438 43.3575 14.3521 43.5655 14.1842L44.6935 13.2729L45.7414 14.1736C47.2434 15.4646 48.1048 17.3412 48.1048 19.3217V25.8065C48.1048 30.2929 44.4549 33.9427 39.9685 33.9427C35.4821 33.9427 31.8324 30.2929 31.8324 25.8067ZM39.9687 36.2822C41.3076 36.2822 42.587 36.0271 43.7651 35.5673V37.0661L39.9687 38.9276L36.1722 37.0661V35.5673C37.3502 36.0269 38.6298 36.2822 39.9687 36.2822ZM35.28 43.8307L32.7604 40.4619L34.6002 38.9006L38.7989 40.9592V42.7597L35.28 43.8307ZM44.6572 43.8307L41.1383 42.7599V40.9594L45.337 38.9008L47.1768 40.462L44.6572 43.8307ZM56.1778 38.9078C55.1189 37.5347 54.8985 35.7656 55.5885 34.1748L57.347 30.1196C57.562 29.6243 57.71 29.102 57.7868 28.5671C58.4008 24.3009 62.114 21.0837 66.4242 21.0837C70.7343 21.0837 74.4475 24.3009 75.0614 28.5671C75.1382 29.1019 75.2862 29.6242 75.5012 30.1196L77.2597 34.1748C77.9495 35.7654 77.7293 37.5347 76.6704 38.9078C75.8862 39.9243 74.775 40.5501 73.5554 40.7003C73.8073 40.0459 73.9715 39.3483 74.0319 38.6213C74.0852 37.9775 73.6064 37.4123 72.9628 37.359C72.3196 37.3067 71.754 37.7844 71.7005 38.428C71.4751 41.149 69.1575 43.2805 66.4242 43.2805C63.5036 43.2805 61.1277 40.9046 61.1277 37.984V32.3729C61.1277 31.1287 61.4939 29.905 62.1684 28.8664C63.682 30.0217 65.5477 30.6825 67.4535 30.7328L71.7206 30.8454V33.5398C71.7206 34.1859 72.2443 34.7094 72.8903 34.7094C73.5363 34.7094 74.06 34.1859 74.06 33.5398V30.5287C74.06 29.4286 73.1985 28.5442 72.0988 28.5153L67.5151 28.3946C66.0309 28.3553 64.5794 27.8177 63.4279 26.8812L63.1257 26.6353C62.7692 26.3453 62.3214 26.2125 61.8643 26.2616C61.4075 26.3104 60.9978 26.535 60.711 26.8935C59.471 28.4428 58.7879 30.3888 58.7879 32.3734V37.9845C58.7879 38.9401 58.9659 39.8544 59.2879 40.6981C58.0705 40.5469 56.9609 39.923 56.1778 38.9078ZM66.3161 47.8985C65.5193 47.8985 64.871 47.2503 64.871 46.4534V45.4607C65.3727 45.5648 65.8921 45.62 66.424 45.62C66.8791 45.62 67.3256 45.5772 67.761 45.4986V46.4536C67.7612 47.2503 67.1129 47.8985 66.3161 47.8985Z" fill="#1E959B"/>
<path d="M2.507 50.26C1.92559 49.9779 1.22613 50.2215 0.944472 50.8029C0.317839 52.0975 0 53.482 0 54.9182V58.6469C0 59.293 0.523701 59.8165 1.16967 59.8165C1.81564 59.8165 2.33935 59.293 2.33935 58.6469V54.9182C2.33935 53.8381 2.57843 52.7966 3.05019 51.8224C3.3317 51.241 3.08856 50.5413 2.507 50.26Z" fill="#1E959B"/>
</svg>
